<svg xmlns="http://www.w3.org/2000/svg" viewBox="0 0 132 132"><path d="M119 27v-9.8c0-1.6-1.3-3-3-3H96.5c-1.1 0-1.9.8-1.9 1.9 0 1 .9 1.9 1.9 1.9h18.7v10.8c0 1 .9 1.9 1.9 1.9 5.9 0 10.6 4.7 10.6 10.6 0 5.8-4.8 10.6-10.6 10.6-1.1 0-1.9.8-1.9 1.9v10.7h-9.9c-1.5 0-2.8 1.2-2.9 2.7-.4 5.5-5.1 9.8-10.6 9.8s-10.2-4.3-10.6-9.8c-.1-1.5-1.4-2.7-2.9-2.7h-9.9v-9c7.1-.9 12.5-7 12.5-14.2 0-7.2-5.4-13.3-12.5-14.2V18h30.9c1.1 0 1.9-.8 1.9-1.9 0-1-.9-1.9-1.9-1.9h-33c-.6-.2.1-.1-10.8-.1C54.4 7.2 48.4 2 41.2 2 34 2 28 7.2 27 14.1H17c-1.6 0-2.9 1.3-2.9 2.9v60.2c-7.1.9-12.5 7-12.5 14.2 0 7.2 5.4 13.3 12.5 14.2v9.9c0 1.6 1.3 2.9 2.9 2.9h60.5c.9 7.1 7.1 12.5 14.3 12.5 7.2 0 13.4-5.4 14.3-12.5h10c1.6 0 2.9-1.3 2.9-2.9V97c0-1-.9-1.9-1.9-1.9-1.1 0-1.9.8-1.9 1.9v17.7h-9.9c-1.5 0-2.8 1.2-2.9 2.7-.4 5.5-5.1 9.8-10.6 9.8s-10.2-4.3-10.6-9.8c-.1-1.5-1.4-2.7-2.9-2.7h-9.9V104c0-1-.9-1.9-1.9-1.9-5.9 0-10.6-4.7-10.6-10.6 0-5.8 4.8-10.6 10.6-10.6 1.1 0 1.9-.8 1.9-1.9V68.3h9.1c.9 7.1 7.1 12.5 14.3 12.5 7.2 0 13.4-5.4 14.3-12.5h9.1v33c0 1 .9 1.9 1.9 1.9 1.1 0 1.9-.8 1.9-1.9V66.8c.1-.3 0 .5 0-11.3 7.1-.9 12.5-7 12.5-14.2C131.5 34 126 28 119 27zM17.8 17.9h9.9c1.5 0 2.7-1.1 2.9-2.6.5-5.4 5.1-9.5 10.6-9.5s10 4.1 10.6 9.5c.1 1.5 1.4 2.6 2.9 2.6h9.9v9.8c0 1.5 1.2 2.8 2.7 2.9 5.5.4 9.8 5 9.8 10.5s-4.3 10.1-9.8 10.5c-1.5.1-2.7 1.4-2.7 2.9v9.8h-9.1c-.9-7-7-12.5-14.3-12.5-7.3 0-13.4 5.4-14.3 12.5h-9.1V17.9zm46.8 59.4c-7.1.9-12.5 7-12.5 14.2 0 7.3 5.5 13.3 12.5 14.2v9H17.8v-9.8c0-1.5-1.2-2.8-2.7-2.9-5.5-.4-9.8-5-9.8-10.5S9.6 81.4 15.1 81c1.5-.1 2.7-1.4 2.7-2.9v-9.8h10.9c1.1 0 1.9-.8 1.9-1.9 0-5.8 4.8-10.6 10.6-10.6 5.9 0 10.6 4.7 10.6 10.6 0 1 .9 1.9 1.9 1.9h10.8v9z" fill="#ea362f"/></svg>