<svg xmlns="http://www.w3.org/2000/svg" viewBox="0 0 132 132"><path fill-rule="evenodd" clip-rule="evenodd" d="M34.7 21.8h1.8c1 0 1.8-.8 1.8-1.8s-.8-1.8-1.8-1.8h-1.8c-1 0-1.8.8-1.8 1.8s.8 1.8 1.8 1.8zm-14.1 7.1c1 0 1.8-.8 1.8-1.8h5.3v-5.3c1 0 1.8-.8 1.8-1.8s-.8-1.8-1.8-1.8V13H13.5v14.1h5.3c0 1 .8 1.8 1.8 1.8zM16.5 16h8v8h-8v-8zm4.1 78.3c-1 0-1.8.8-1.8 1.8v1.8c0 1 .8 1.8 1.8 1.8s1.8-.8 1.8-1.8V96c-.1-.9-.9-1.7-1.8-1.7zm1.7-24.8c0-1-.8-1.8-1.8-1.8s-1.8.8-1.8 1.8v1.8c0 1 .8 1.8 1.8 1.8s1.8-.8 1.8-1.8v-1.8zm0 8.9c0-1-.8-1.8-1.8-1.8s-1.8.8-1.8 1.8v1.8c0 1 .8 1.8 1.8 1.8s1.8-.8 1.8-1.8v-1.8zM70 21.8h1.8c1 0 1.8-.8 1.8-1.8s-.8-1.8-1.8-1.8H70c-1 0-1.8.8-1.8 1.8.1 1 .9 1.8 1.8 1.8zm17.7 0h1.8c1 0 1.8-.8 1.8-1.8s-.8-1.8-1.8-1.8h-1.8c-1 0-1.8.8-1.8 1.8s.8 1.8 1.8 1.8zm-8.8 0h1.8c1 0 1.8-.8 1.8-1.8s-.8-1.8-1.8-1.8h-1.8c-1 0-1.8.8-1.8 1.8s.8 1.8 1.8 1.8zm17.6 0h1.8c1 0 1.8-.8 1.8-1.8s-.8-1.8-1.8-1.8h-1.8c-1 0-1.8.8-1.8 1.8.1 1 .9 1.8 1.8 1.8zm-35.3 0H63c1 0 1.8-.8 1.8-1.8s-.8-1.8-1.8-1.8h-1.8c-1 0-1.8.8-1.8 1.8s.8 1.8 1.8 1.8zm-8.8 0h1.8c1 0 1.8-.8 1.8-1.8s-.8-1.8-1.8-1.8h-1.8c-1 0-1.8.8-1.8 1.8s.8 1.8 1.8 1.8zM22.3 60.7c0-1-.8-1.8-1.8-1.8s-1.8.8-1.8 1.8v1.8c0 1 .8 1.8 1.8 1.8s1.8-.8 1.8-1.8v-1.8zm21.2-38.9h1.8c1 0 1.8-.8 1.8-1.8s-.8-1.8-1.8-1.8h-1.8c-1 0-1.8.8-1.8 1.8.1 1 .9 1.8 1.8 1.8zM22.3 87.2c0-1-.8-1.8-1.8-1.8s-1.8.8-1.8 1.8V89c0 1 .8 1.8 1.8 1.8s1.8-.8 1.8-1.8v-1.8zm88.4-7.1c0 1 .8 1.8 1.8 1.8s1.8-.8 1.8-1.8v-1.8c0-1-.8-1.8-1.8-1.8s-1.8.8-1.8 1.8v1.8zm0-17.6c0 1 .8 1.8 1.8 1.8s1.8-.8 1.8-1.8v-1.8c0-1-.8-1.8-1.8-1.8s-1.8.8-1.8 1.8v1.8zm0 26.5c0 1 .8 1.8 1.8 1.8s1.8-.8 1.8-1.8v-1.8c0-1-.8-1.8-1.8-1.8s-1.8.8-1.8 1.8V89zm0-17.7c0 1 .8 1.8 1.8 1.8s1.8-.8 1.8-1.8v-1.8c0-1-.8-1.8-1.8-1.8s-1.8.8-1.8 1.8v1.8zM105.4 13v5.3c-1 0-1.8.8-1.8 1.8s.8 1.8 1.8 1.8v5.3h5.3c0 1 .8 1.8 1.8 1.8s1.8-.8 1.8-1.8h5.3V13h-14.2zm11.1 11h-8v-8h8v8zm-5.8 73.8c0 1 .8 1.8 1.8 1.8s1.8-.8 1.8-1.8V96c0-1-.8-1.8-1.8-1.8s-1.8.8-1.8 1.8v1.8zm1.7-60.1c1 0 1.8-.8 1.8-1.8v-1.8c0-1-.8-1.8-1.8-1.8s-1.8.8-1.8 1.8V36c.1.9.9 1.7 1.8 1.7zm0 65.4c-1 0-1.8.8-1.8 1.8h-2.3L93 65.7v-12H78.9V59H54.1v-5.3H40v12l-15.3 39.2h-2.3c0-1-.8-1.8-1.8-1.8s-1.8.8-1.8 1.8h-5.3V119h14.1v-5.3h77.7v5.3h14.1v-14.1h-5.3c.1-1-.7-1.8-1.7-1.8zm-7 7.1H27.6V107L43 67.8h11.2v-5.3h24.7v5.3H90l15.3 39.2v3.2zm-83.1-76c0-1-.8-1.8-1.8-1.8s-1.8.8-1.8 1.8V36c0 1 .8 1.8 1.8 1.8s1.8-.8 1.8-1.8v-1.8zm0 8.8c0-1-.8-1.8-1.8-1.8s-1.8.8-1.8 1.8v1.8c0 1 .8 1.8 1.8 1.8s1.8-.8 1.8-1.8V43zm88.4 10.6c0 1 .8 1.8 1.8 1.8s1.8-.8 1.8-1.8v-1.8c0-1-.8-1.8-1.8-1.8s-1.8.8-1.8 1.8v1.8zm-88.4-1.7c0-1-.8-1.8-1.8-1.8s-1.8.8-1.8 1.8v1.8c0 1 .8 1.8 1.8 1.8s1.8-.8 1.8-1.8v-1.8zm88.4-7.1c0 1 .8 1.8 1.8 1.8s1.8-.8 1.8-1.8V43c0-1-.8-1.8-1.8-1.8s-1.8.8-1.8 1.8v1.8z" fill="#ea362f"/></svg>